<mxfile host="app.diagrams.net" modified="2024-07-02T08:43:21.578Z" agent="Mozilla/5.0 (Windows NT 10.0; Win64; x64) AppleWebKit/537.36 (KHTML, like Gecko) Chrome/117.0.0.0 Safari/537.36" version="24.6.4" etag="UO1VjElrJaRa6VvDuZqn" type="github">
  <diagram name="PÃ¡gina-1" id="WRGwTFlq0eJbPn46Hm0h">
    <mxGraphModel>
      <root>
        <mxCell id="0" />
        <mxCell id="1" parent="0" />
      </root>
    </mxGraphModel>
  </diagram>
</mxfile>
